<svg width="400" height="400" viewBox="0 0 400 400" fill="none" xmlns="http://www.w3.org/2000/svg">
<g clip-path="url(#clip0_3_44)">
<path d="M200 400C200 400 60 217.4 60 140C60 121.615 63.6212 103.41 70.6569 86.4243C77.6925 69.4387 88.0048 54.0052 101.005 41.005C114.005 28.0048 129.439 17.6925 146.424 10.6569C163.41 3.6212 181.615 -3.8147e-06 200 -3.8147e-06C218.385 -3.8147e-06 236.59 3.6212 253.576 10.6569C270.561 17.6925 285.995 28.0048 298.995 41.005C311.995 54.0052 322.307 69.4387 329.343 86.4243C336.379 103.41 340 121.615 340 140C340 217.4 200 400 200 400ZM200 180C210.609 180 220.783 175.786 228.284 168.284C235.786 160.783 240 150.609 240 140C240 129.391 235.786 119.217 228.284 111.716C220.783 104.214 210.609 100 200 100C189.391 100 179.217 104.214 171.716 111.716C164.214 119.217 160 129.391 160 140C160 150.609 164.214 160.783 171.716 168.284C179.217 175.786 189.391 180 200 180Z" fill="black"/>
</g>
<defs>
<clipPath id="clip0_3_44">
<rect width="400" height="400" fill="white"/>
</clipPath>
</defs>
</svg>
