<svg width="258" height="258" viewBox="0 0 258 258" fill="none" xmlns="http://www.w3.org/2000/svg">
<path fill-rule="evenodd" clip-rule="evenodd" d="M172 96.75C172 108.154 167.47 119.092 159.406 127.156C151.342 135.22 140.404 139.75 129 139.75C117.596 139.75 106.658 135.22 98.5944 127.156C90.5303 119.092 86 108.154 86 96.75C86 85.3457 90.5303 74.4085 98.5944 66.3444C106.658 58.2803 117.596 53.75 129 53.75C140.404 53.75 151.342 58.2803 159.406 66.3444C167.47 74.4085 172 85.3457 172 96.75ZM150.5 96.75C150.5 102.452 148.235 107.921 144.203 111.953C140.171 115.985 134.702 118.25 129 118.25C123.298 118.25 117.829 115.985 113.797 111.953C109.765 107.921 107.5 102.452 107.5 96.75C107.5 91.0478 109.765 85.5792 113.797 81.5472C117.829 77.5152 123.298 75.25 129 75.25C134.702 75.25 140.171 77.5152 144.203 81.5472C148.235 85.5792 150.5 91.0478 150.5 96.75Z" fill="#C10000"/>
<path fill-rule="evenodd" clip-rule="evenodd" d="M129 10.75C63.6938 10.75 10.75 63.6938 10.75 129C10.75 194.306 63.6938 247.25 129 247.25C194.306 247.25 247.25 194.306 247.25 129C247.25 63.6938 194.306 10.75 129 10.75ZM32.25 129C32.25 151.467 39.9147 172.15 52.761 188.576C61.785 176.731 73.4242 167.132 86.7701 160.527C100.116 153.922 114.808 150.49 129.699 150.5C144.398 150.483 158.907 153.823 172.12 160.265C185.332 166.707 196.899 176.082 205.938 187.674C215.252 175.457 221.523 161.199 224.233 146.077C226.943 130.956 226.013 115.407 221.52 100.717C217.027 86.0262 209.101 72.6168 198.396 61.5979C187.692 50.579 174.518 42.2675 159.964 37.351C145.41 32.4344 129.894 31.0543 114.701 33.3247C99.5076 35.5951 85.0733 41.4508 72.5923 50.4073C60.1113 59.3638 49.9425 71.1636 42.9272 84.8304C35.912 98.4971 32.2519 113.638 32.25 129ZM129 225.75C106.79 225.786 85.249 218.145 68.026 204.121C74.9577 194.195 84.1853 186.09 94.9233 180.497C105.661 174.905 117.592 171.99 129.699 172C141.655 171.99 153.44 174.832 164.077 180.292C174.714 185.751 183.894 193.67 190.855 203.39C173.499 217.87 151.603 225.785 129 225.75Z" fill="#C10000"/>
</svg>
