<svg width="258" height="258" viewBox="0 0 258 258" fill="none" xmlns="http://www.w3.org/2000/svg">
<path d="M219.192 92.02L205.862 112.015C212.239 124.733 215.361 138.834 214.948 153.055C214.535 167.277 210.601 181.173 203.497 193.5H54.5025C45.27 177.484 41.4444 158.919 43.5928 140.557C45.7411 122.195 53.749 105.015 66.4294 91.5623C79.1098 78.1098 95.7875 69.1014 113.99 65.8727C132.193 62.644 150.951 65.3668 167.485 73.6375L187.48 60.3075C166.298 46.5788 140.96 40.7421 115.906 43.8199C90.8518 46.8977 67.68 58.6938 50.4503 77.1413C33.2207 95.5889 23.0322 119.511 21.67 144.717C20.3078 169.922 27.8588 194.803 43 215H215C228.186 197.383 235.648 176.145 236.378 154.152C237.109 132.16 231.073 110.473 219.085 92.02H219.192Z" fill="#FF0000"/>
<path d="M113.843 165.658C115.839 167.657 118.21 169.242 120.821 170.324C123.431 171.406 126.228 171.963 129.054 171.963C131.879 171.963 134.677 171.406 137.287 170.324C139.897 169.242 142.268 167.657 144.265 165.658L205.11 74.39L113.843 135.235C111.844 137.232 110.258 139.603 109.176 142.213C108.094 144.823 107.537 147.621 107.537 150.446C107.537 153.272 108.094 156.069 109.176 158.679C110.258 161.29 111.844 163.661 113.843 165.658Z" fill="#FF0000"/>
</svg>
